<?plantuml 1.2026.2beta3?><svg xmlns="http://www.w3.org/2000/svg" xmlns:xlink="http://www.w3.org/1999/xlink" contentStyleType="text/css" data-diagram-type="DESCRIPTION" height="607px" preserveAspectRatio="none" style="width:776px;height:607px;background:#FFFFFF;" version="1.1" viewBox="0 0 776 607" width="776px" zoomAndPan="magnify"><defs/><g><!--cluster EasySave (V1)--><g class="cluster" data-qualified-name="EasySave .V1." data-source-line="7" id="ent0003"><rect fill="none" height="388" rx="2.5" ry="2.5" style="stroke:#181818;stroke-width:1;" width="645.73" x="125.01" y="7"/><text fill="#000000" font-family="sans-serif" font-size="14" font-weight="bold" lengthAdjust="spacing" textLength="112.8682" x="391.4409" y="21.9951">EasySave (V1)</text></g><!--entity UC_JOBS--><g class="entity" data-qualified-name="EasySave .V1..UC_JOBS" data-source-line="9" id="ent0004"><ellipse cx="276.666" cy="80.0015" fill="#F1F1F1" rx="135.656" ry="34.3815" style="stroke:#181818;stroke-width:0.5;"/><text fill="#000000" font-family="sans-serif" font-size="14" lengthAdjust="spacing" textLength="96.9199" x="228.2061" y="63.5857">Gerer les jobs</text><text fill="#000000" font-family="sans-serif" font-size="14" lengthAdjust="spacing" textLength="195.542" x="178.8951" y="79.8826">Creer / Modifier / Supprimer</text><text fill="#000000" font-family="sans-serif" font-size="14" lengthAdjust="spacing" textLength="206.6709" x="173.3306" y="96.1795">Type complete / differentielle</text></g><!--entity UC_RUN_ONE--><g class="entity" data-qualified-name="EasySave .V1..UC_RUN_ONE" data-source-line="11" id="ent0005"><ellipse cx="276.6658" cy="164.9992" fill="#F1F1F1" rx="65.6958" ry="15.5392" style="stroke:#181818;stroke-width:0.5;"/><text fill="#000000" font-family="sans-serif" font-size="14" lengthAdjust="spacing" textLength="95.3066" x="229.0125" y="169.6476">Lancer un job</text></g><!--entity UC_RUN_SEQ--><g class="entity" data-qualified-name="EasySave .V1..UC_RUN_SEQ" data-source-line="12" id="ent0006"><ellipse cx="276.6741" cy="241.0022" fill="#F1F1F1" rx="103.6941" ry="25.1422" style="stroke:#181818;stroke-width:0.5;"/><text fill="#000000" font-family="sans-serif" font-size="14" lengthAdjust="spacing" textLength="148.2236" x="202.5623" y="238.8094">Lancer plusieurs jobs</text><text fill="#000000" font-family="sans-serif" font-size="14" lengthAdjust="spacing" textLength="122.1514" x="215.5984" y="255.1063">sequentiellement</text></g><!--entity UC_PROGRESS--><g class="entity" data-qualified-name="EasySave .V1..UC_PROGRESS" data-source-line="14" id="ent0007"><ellipse cx="646.0275" cy="350.9995" fill="#F1F1F1" rx="87.4975" ry="19.8995" style="stroke:#181818;stroke-width:0.5;"/><text fill="#000000" font-family="sans-serif" font-size="14" lengthAdjust="spacing" textLength="148.0527" x="572.0011" y="355.6479">Suivre la progression</text></g><!--entity UC_STATE--><g class="entity" data-qualified-name="EasySave .V1..UC_STATE" data-source-line="15" id="ent0008"><ellipse cx="646.0296" cy="173.0019" fill="#F1F1F1" rx="108.7096" ry="24.1419" style="stroke:#181818;stroke-width:0.5;"/><text fill="#000000" font-family="sans-serif" font-size="14" lengthAdjust="spacing" textLength="169.8184" x="561.1204" y="173.2052">Consulter l'etat des jobs</text><text fill="#000000" font-family="sans-serif" font-size="14" lengthAdjust="spacing" textLength="68.5371" x="611.761" y="189.5021">state.json</text></g><!--entity UC_LOGS--><g class="entity" data-qualified-name="EasySave .V1..UC_LOGS" data-source-line="16" id="ent0009"><ellipse cx="646.0257" cy="271.9959" fill="#F1F1F1" rx="84.2057" ry="24.2659" style="stroke:#181818;stroke-width:0.5;"/><text fill="#000000" font-family="sans-serif" font-size="14" lengthAdjust="spacing" textLength="124.4619" x="583.7948" y="271.1308">Consulter les logs</text><text fill="#000000" font-family="sans-serif" font-size="14" lengthAdjust="spacing" textLength="73.9785" x="609.0365" y="287.4276">journaliers</text></g><!--entity UC_LANG--><g class="entity" data-qualified-name="EasySave .V1..UC_LANG" data-source-line="18" id="ent0010"><ellipse cx="276.6717" cy="324.9985" fill="#F1F1F1" rx="84.8017" ry="23.7585" style="stroke:#181818;stroke-width:0.5;"/><text fill="#000000" font-family="sans-serif" font-size="14" lengthAdjust="spacing" textLength="128.4404" x="212.4515" y="324.9374">Changer la langue</text><text fill="#000000" font-family="sans-serif" font-size="14" lengthAdjust="spacing" textLength="50.7158" x="251.3138" y="341.2343">FR / EN</text></g><!--entity User--><g class="entity" data-qualified-name="User" data-source-line="5" id="ent0002"><ellipse cx="42.0049" cy="295.35" fill="#F1F1F1" rx="8" ry="8" style="stroke:#181818;stroke-width:0.5;"/><path d="M42.0049,303.35 L42.0049,330.35 M29.0049,311.35 L55.0049,311.35 M42.0049,330.35 L29.0049,345.35 M42.0049,330.35 L55.0049,345.35" fill="none" style="stroke:#181818;stroke-width:0.5;"/><text fill="#000000" font-family="sans-serif" font-size="14" lengthAdjust="spacing" textLength="72.0098" x="6" y="359.8451">Utilisateur</text></g><!--link User to UC_JOBS--><g class="link" data-entity-1="ent0002" data-entity-2="ent0004" data-link-type="dependency" data-source-line="21" id="lnk11"><path d="M47.81,286.61 C55.22,243.28 73.47,173.44 117.01,132 C131.39,118.31 143.8642,110.446 162.5842,103.006" fill="none" id="User-to-UC_JOBS" style="stroke:#181818;stroke-width:1;"/><polygon fill="#181818" points="168.16,100.79,158.319,100.3968,163.5135,102.6367,161.2737,107.8312,168.16,100.79" style="stroke:#181818;stroke-width:1;"/></g><!--link User to UC_RUN_ONE--><g class="link" data-entity-1="ent0002" data-entity-2="ent0005" data-link-type="dependency" data-source-line="22" id="lnk12"><path d="M55.63,286.57 C67.09,257.76 86.88,219.7 117.01,198 C144.06,178.52 174.1088,170.6817 204.9788,167.1517" fill="none" id="User-to-UC_RUN_ONE" style="stroke:#181818;stroke-width:1;"/><polygon fill="#181818" points="210.94,166.47,201.5438,163.5184,205.9724,167.0381,202.4527,171.4666,210.94,166.47" style="stroke:#181818;stroke-width:1;"/></g><!--link User to UC_RUN_SEQ--><g class="link" data-entity-1="ent0002" data-entity-2="ent0006" data-link-type="dependency" data-source-line="23" id="lnk13"><path d="M78.28,303.18 C90.27,296.39 103.94,289.3 117.01,284 C142.93,273.49 166.4411,266.2224 192.7711,259.4124" fill="none" id="User-to-UC_RUN_SEQ" style="stroke:#181818;stroke-width:1;"/><polygon fill="#181818" points="198.58,257.91,188.8651,256.291,193.7393,259.162,190.8683,264.0362,198.58,257.91" style="stroke:#181818;stroke-width:1;"/></g><!--link User to UC_PROGRESS--><g class="link" data-entity-1="ent0002" data-entity-2="ent0007" data-link-type="dependency" data-source-line="24" id="lnk14"><path d="M45.19,363.45 C49.84,404.77 64.16,468.57 108.01,499 C253.82,600.18 344.61,569.86 507.32,499 C567.98,472.59 610.9167,409.995 630.9567,376.095" fill="none" id="User-to-UC_PROGRESS" style="stroke:#181818;stroke-width:1;"/><polygon fill="#181818" points="634.01,370.93,625.9867,376.642,631.4656,375.2342,632.8734,380.7131,634.01,370.93" style="stroke:#181818;stroke-width:1;"/></g><!--link User to UC_STATE--><g class="link" data-entity-1="ent0002" data-entity-2="ent0008" data-link-type="dependency" data-source-line="25" id="lnk15"><path d="M78.34,349.32 C90.11,356.1 103.64,362.54 117.01,366 C285.1,409.45 379.86,467.88 507.32,350 C547.68,312.67 503.42,273.28 537.32,230 C549.72,214.18 562.3566,204.8993 580.1366,196.1493" fill="none" id="User-to-UC_STATE" style="stroke:#181818;stroke-width:1;"/><polygon fill="#181818" points="585.52,193.5,575.6787,193.885,581.0338,195.7078,579.2111,201.0629,585.52,193.5" style="stroke:#181818;stroke-width:1;"/></g><!--link User to UC_LOGS--><g class="link" data-entity-1="ent0002" data-entity-2="ent0009" data-link-type="dependency" data-source-line="26" id="lnk16"><path d="M56.32,363.56 C66.55,386.74 83.2,414.32 108.01,428 C263.42,513.69 366.77,536.35 507.32,428 C548.82,396.01 502.46,353.11 537.32,314 C548.27,301.72 557.6957,295.2346 573.0157,289.0546" fill="none" id="User-to-UC_LOGS" style="stroke:#181818;stroke-width:1;"/><polygon fill="#181818" points="578.58,286.81,568.7371,286.4674,573.9431,288.6805,571.7299,293.8865,578.58,286.81" style="stroke:#181818;stroke-width:1;"/></g><!--link User to UC_LANG--><g class="link" data-entity-1="ent0002" data-entity-2="ent0010" data-link-type="dependency" data-source-line="27" id="lnk17"><path d="M78.34,325 C108.34,325 146.61,325 185.62,325" fill="none" id="User-to-UC_LANG" style="stroke:#181818;stroke-width:1;"/><polygon fill="#181818" points="191.62,325,182.62,321,186.62,325,182.62,329,191.62,325" style="stroke:#181818;stroke-width:1;"/></g><!--link UC_RUN_ONE to UC_PROGRESS--><g class="link" data-entity-1="ent0005" data-entity-2="ent0007" data-link-type="dependency" data-source-line="29" id="lnk18"><path d="M337.62,171.19 C362.21,175.81 390.06,183.89 412.32,198 C430.2,209.33 425.94,221.59 442.32,235 C467.55,255.64 483.08,247.2 507.32,269 C525.2,285.07 518.29,299.32 537.32,314 C550.47,324.14 560.9221,329.6414 576.6421,335.1014" fill="none" id="UC_RUN_ONE-to-UC_PROGRESS" style="stroke:#181818;stroke-width:1;stroke-dasharray:7,7;"/><polygon fill="#181818" points="582.31,337.07,575.1206,330.3385,577.5868,335.4295,572.4958,337.8957,582.31,337.07" style="stroke:#181818;stroke-width:1;"/><text fill="#000000" font-family="sans-serif" font-size="13" lengthAdjust="spacing" textLength="63.0068" x="443.32" y="231.0669">&#171;include&#187;</text></g><!--link UC_RUN_ONE to UC_STATE--><g class="link" data-entity-1="ent0005" data-entity-2="ent0008" data-link-type="dependency" data-source-line="30" id="lnk19"><path d="M337,158.42 C361.62,153.73 389.67,145.7 412.32,132 C429.56,121.57 423.95,106.29 442.32,98 C468.65,86.12 479.33,90.87 507.32,98 C546.37,107.94 581.3187,128.1005 608.0587,146.1705" fill="none" id="UC_RUN_ONE-to-UC_STATE" style="stroke:#181818;stroke-width:1;stroke-dasharray:7,7;"/><polygon fill="#181818" points="613.03,149.53,607.8127,141.1766,608.8872,146.7305,603.3334,147.805,613.03,149.53" style="stroke:#181818;stroke-width:1;"/><text fill="#000000" font-family="sans-serif" font-size="13" lengthAdjust="spacing" textLength="63.0068" x="443.32" y="87.0669">&#171;include&#187;</text></g><!--link UC_RUN_ONE to UC_LOGS--><g class="link" data-entity-1="ent0005" data-entity-2="ent0009" data-link-type="dependency" data-source-line="31" id="lnk20"><path d="M327.93,154.99 C376.76,147.91 451.49,144.28 507.32,174 C527.25,184.61 520.24,200.23 537.32,215 C554.69,230.01 571.2764,239.932 590.8564,249.382" fill="none" id="UC_RUN_ONE-to-UC_LOGS" style="stroke:#181818;stroke-width:1;stroke-dasharray:7,7;"/><polygon fill="#181818" points="596.26,251.99,589.8933,244.4757,591.757,249.8167,586.416,251.6804,596.26,251.99" style="stroke:#181818;stroke-width:1;"/><text fill="#000000" font-family="sans-serif" font-size="13" lengthAdjust="spacing" textLength="63.0068" x="443.32" y="150.0669">&#171;include&#187;</text></g><!--link UC_RUN_SEQ to UC_PROGRESS--><g class="link" data-entity-1="ent0006" data-entity-2="ent0007" data-link-type="dependency" data-source-line="33" id="lnk21"><path d="M354.97,257.89 C374.63,264.23 395.06,272.73 412.32,284 C429.2,295.02 424.68,308.26 442.32,318 C477.36,337.35 514.6687,345.4935 552.2387,349.1835" fill="none" id="UC_RUN_SEQ-to-UC_PROGRESS" style="stroke:#181818;stroke-width:1;stroke-dasharray:7,7;"/><polygon fill="#181818" points="558.21,349.77,549.6441,344.9094,553.2339,349.2813,548.8621,352.8711,558.21,349.77" style="stroke:#181818;stroke-width:1;"/><text fill="#000000" font-family="sans-serif" font-size="13" lengthAdjust="spacing" textLength="63.0068" x="443.32" y="314.0669">&#171;include&#187;</text></g><!--link UC_RUN_SEQ to UC_STATE--><g class="link" data-entity-1="ent0006" data-entity-2="ent0008" data-link-type="dependency" data-source-line="34" id="lnk22"><path d="M360.11,225.74 C420.08,214.64 495.1003,200.7524 555.3703,189.5924" fill="none" id="UC_RUN_SEQ-to-UC_STATE" style="stroke:#181818;stroke-width:1;stroke-dasharray:7,7;"/><polygon fill="#181818" points="561.27,188.5,551.6921,186.2055,556.3536,189.4104,553.1487,194.0718,561.27,188.5" style="stroke:#181818;stroke-width:1;"/><text fill="#000000" font-family="sans-serif" font-size="13" lengthAdjust="spacing" textLength="63.0068" x="443.32" y="195.0669">&#171;include&#187;</text></g><!--link UC_RUN_SEQ to UC_LOGS--><g class="link" data-entity-1="ent0006" data-entity-2="ent0009" data-link-type="dependency" data-source-line="35" id="lnk23"><path d="M339.48,261.41 C377.37,273.53 422.33,287.09 442.32,290 C470.91,294.16 478.49,291.88 507.32,290 C528.13,288.65 544.6511,286.9311 565.2911,284.2211" fill="none" id="UC_RUN_SEQ-to-UC_LOGS" style="stroke:#181818;stroke-width:1;stroke-dasharray:7,7;"/><polygon fill="#181818" points="571.24,283.44,561.7959,280.6457,566.2825,284.0909,562.8373,288.5776,571.24,283.44" style="stroke:#181818;stroke-width:1;"/><text fill="#000000" font-family="sans-serif" font-size="13" lengthAdjust="spacing" textLength="63.0068" x="443.32" y="286.0669">&#171;include&#187;</text></g><?plantuml-src ZP5DRzim38Rl-XL4BsiFpR3hK0Je0ZV0q2LRbEmKeE0Snb6gI9ueTGY6_VTHBkoe7zXgw22H3z-Nf2rj8qGFmJIx21iJg8x6EyNtnhKOy00jrlVOa8v7Iv3Jw1fB1S0xtFXVnZMmHSka5DRH1rX5OmrZf1G06LPCGQcX7iugvAF61uBpxnykpk2tKW3dKmeKm1B3tl_WjPi4alTx-E8tPckwgqvj6yo1mjejZor1xG-jfKYI4cOh0YuQifOkEjl9tUVv9zs9twAhHIAvBDvd5wlPtNnM5VdM9ZRITTy3qy_KQnxaKbRgwbidhPDv20GMeGs-2SGiI-p1hulvT55fdS69Tvnip4E-euYoyc5MbYUDzdmgrClhPVMiId3h6y7tFWM7LfR2FNyxdpvEEjd9aZEDSboJQErk5hAWQZQWrxEf-gDK_YrmUJaU5bK6-jqyZ-MfozWmO1byRBwCTEqz2UGcrCa8HgCdUl0HhgwCgstQq7Zy2jXvW7p_0xCrl0JLQQ2tUHVWlxqBy7Nllm00?></g></svg>