<?plantuml 1.2026.2beta3?><svg xmlns="http://www.w3.org/2000/svg" xmlns:xlink="http://www.w3.org/1999/xlink" contentStyleType="text/css" data-diagram-type="DESCRIPTION" height="1204px" preserveAspectRatio="none" style="width:727px;height:1204px;background:#FFFFFF;" version="1.1" viewBox="0 0 727 1204" width="727px" zoomAndPan="magnify"><title>EasySave - Use case (V1.1)</title><defs/><g><g class="title" data-source-line="16"><text fill="#000000" font-family="sans-serif" font-size="14" font-weight="bold" lengthAdjust="spacing" textLength="213.1309" x="250.3846" y="22.9951">EasySave - Use case (V1.1)</text></g><!--cluster EasySave--><g class="cluster" data-qualified-name="EasySave" data-source-line="20" id="ent0003"><rect fill="none" height="1154" rx="2.5" ry="2.5" style="stroke:#181818;stroke-width:1;" width="599.89" x="122.01" y="44.2969"/><text fill="#000000" font-family="sans-serif" font-size="14" font-weight="bold" lengthAdjust="spacing" textLength="74.6211" x="384.6445" y="59.292">EasySave</text></g><!--entity UC_CRUD--><g class="entity" data-qualified-name="EasySave.UC_CRUD" data-source-line="23" id="ent0004"><ellipse cx="298.0993" cy="1160.2927" fill="#FFF3E0" rx="97.7793" ry="21.9559" style="stroke:#2F3A4A;stroke-width:0.5;"/><text fill="#000000" font-family="sans-serif" font-size="14" font-weight="bold" lengthAdjust="spacing" textLength="171.1514" x="212.5237" y="1164.9412">G&#233;rer les jobs (CRUD)</text></g><!--entity UC_ValidateJob--><g class="entity" data-qualified-name="EasySave.UC_ValidateJob" data-source-line="24" id="ent0005"><ellipse cx="298.0995" cy="988.2988" fill="#FFF3E0" rx="115.5095" ry="25.5019" style="stroke:#2F3A4A;stroke-width:0.5;"/><text fill="#000000" font-family="sans-serif" font-size="14" font-weight="bold" lengthAdjust="spacing" textLength="209.7471" x="193.2259" y="992.9472">Valider les donn&#233;es du job</text></g><!--entity UC_SaveJobs--><g class="entity" data-qualified-name="EasySave.UC_SaveJobs" data-source-line="25" id="ent0006"><ellipse cx="298.098" cy="1076.3005" fill="#FFF3E0" rx="124.718" ry="27.3436" style="stroke:#2F3A4A;stroke-width:0.5;"/><text fill="#000000" font-family="sans-serif" font-size="14" font-weight="bold" lengthAdjust="spacing" textLength="229.3936" x="183.4012" y="1080.9489">Sauvegarder la liste des jobs</text></g><!--entity UC_RunOne--><g class="entity" data-qualified-name="EasySave.UC_RunOne" data-source-line="28" id="ent0007"><ellipse cx="298.0974" cy="646.2983" fill="#FFF3E0" rx="77.0074" ry="17.8015" style="stroke:#2F3A4A;stroke-width:0.5;"/><text fill="#000000" font-family="sans-serif" font-size="14" font-weight="bold" lengthAdjust="spacing" textLength="123.5664" x="236.3142" y="650.9468">Ex&#233;cuter un job</text></g><!--entity UC_RunAll--><g class="entity" data-qualified-name="EasySave.UC_RunAll" data-source-line="29" id="ent0008"><ellipse cx="298.1022" cy="905.2973" fill="#FFF3E0" rx="99.1022" ry="22.2204" style="stroke:#2F3A4A;stroke-width:0.5;"/><text fill="#000000" font-family="sans-serif" font-size="14" font-weight="bold" lengthAdjust="spacing" textLength="174.0771" x="211.0637" y="909.9458">Ex&#233;cuter tous les jobs</text></g><!--entity UC_RunArgs--><g class="entity" data-qualified-name="EasySave.UC_RunArgs" data-source-line="30" id="ent0009"><ellipse cx="298.0987" cy="813.2946" fill="#FFF3E0" rx="160.0887" ry="34.4177" style="stroke:#2F3A4A;stroke-width:0.5;"/><text fill="#000000" font-family="sans-serif" font-size="14" font-weight="bold" lengthAdjust="spacing" textLength="303.4268" x="146.3854" y="817.9431">Ex&#233;cuter des jobs par arguments (CLI)</text></g><!--entity UC_ValidateArgs--><g class="entity" data-qualified-name="EasySave.UC_ValidateArgs" data-source-line="31" id="ent0010"><ellipse cx="298.0984" cy="721.2986" fill="#FFF3E0" rx="99.1084" ry="22.2217" style="stroke:#2F3A4A;stroke-width:0.5;"/><text fill="#000000" font-family="sans-serif" font-size="14" font-weight="bold" lengthAdjust="spacing" textLength="174.0908" x="211.053" y="725.947">Valider les arguments</text></g><!--entity UC_Log--><g class="entity" data-qualified-name="EasySave.UC_Log" data-source-line="32" id="ent0011"><ellipse cx="298.1045" cy="464.3018" fill="#FFF3E0" rx="119.7745" ry="26.3549" style="stroke:#2F3A4A;stroke-width:0.5;"/><text fill="#000000" font-family="sans-serif" font-size="14" font-weight="bold" lengthAdjust="spacing" textLength="218.873" x="188.668" y="468.9502">Journaliser l'ex&#233;cution (log)</text></g><!--entity UC_State--><g class="entity" data-qualified-name="EasySave.UC_State" data-source-line="33" id="ent0012"><ellipse cx="298.0993" cy="559.2967" fill="#FFF3E0" rx="158.3993" ry="34.0799" style="stroke:#2F3A4A;stroke-width:0.5;"/><text fill="#000000" font-family="sans-serif" font-size="14" font-weight="bold" lengthAdjust="spacing" textLength="299.9268" x="148.1359" y="563.9452">Mettre &#224; jour l'&#233;tat global (state.json)</text></g><!--entity UC_Result--><g class="entity" data-qualified-name="EasySave.UC_Result" data-source-line="34" id="ent0013"><ellipse cx="612.0478" cy="904.2984" fill="#FFF3E0" rx="93.8578" ry="21.1716" style="stroke:#2F3A4A;stroke-width:0.5;"/><text fill="#000000" font-family="sans-serif" font-size="14" font-weight="bold" lengthAdjust="spacing" textLength="162.4219" x="530.8369" y="908.9469">Consulter le r&#233;sultat</text></g><!--entity UC_Config--><g class="entity" data-qualified-name="EasySave.UC_Config" data-source-line="37" id="ent0014"><ellipse cx="298.1017" cy="379.2952" fill="#FFF3E0" rx="104.4917" ry="23.2983" style="stroke:#2F3A4A;stroke-width:0.5;"/><text fill="#000000" font-family="sans-serif" font-size="14" font-weight="bold" lengthAdjust="spacing" textLength="185.9102" x="205.1467" y="383.9437">Configurer l'application</text></g><!--entity UC_Lang--><g class="entity" data-qualified-name="EasySave.UC_Lang" data-source-line="38" id="ent0015"><ellipse cx="298.0971" cy="195.2923" fill="#FFF3E0" rx="114.7771" ry="25.3554" style="stroke:#2F3A4A;stroke-width:0.5;"/><text fill="#000000" font-family="sans-serif" font-size="14" font-weight="bold" lengthAdjust="spacing" textLength="208.1748" x="194.0097" y="199.9407">Changer la langue (FR/EN)</text></g><!--entity UC_LogFormat--><g class="entity" data-qualified-name="EasySave.UC_LogFormat" data-source-line="39" id="ent0016"><ellipse cx="298.1027" cy="288.3014" fill="#FFF3E0" rx="149.5727" ry="32.3145" style="stroke:#2F3A4A;stroke-width:0.5;"/><text fill="#000000" font-family="sans-serif" font-size="14" font-weight="bold" lengthAdjust="spacing" textLength="281.5928" x="157.3063" y="292.9498">Choisir le format du log (JSON/XML)</text></g><!--entity UC_SaveConfig--><g class="entity" data-qualified-name="EasySave.UC_SaveConfig" data-source-line="40" id="ent0017"><ellipse cx="298.1003" cy="107.3009" fill="#FFF3E0" rx="125.5203" ry="27.5041" style="stroke:#2F3A4A;stroke-width:0.5;"/><text fill="#000000" font-family="sans-serif" font-size="14" font-weight="bold" lengthAdjust="spacing" textLength="231.0957" x="182.5525" y="111.9494">Sauvegarder la configuration</text></g><!--entity User--><g class="entity" data-qualified-name="User" data-source-line="18" id="ent0002"><ellipse cx="42.0049" cy="829.6469" fill="#E8F5E9" rx="8" ry="8" style="stroke:#2F3A4A;stroke-width:0.5;"/><path d="M42.0049,837.6469 L42.0049,864.6469 M29.0049,845.6469 L55.0049,845.6469 M42.0049,864.6469 L29.0049,879.6469 M42.0049,864.6469 L55.0049,879.6469" fill="none" style="stroke:#2F3A4A;stroke-width:0.5;"/><text fill="#000000" font-family="sans-serif" font-size="14" lengthAdjust="spacing" textLength="72.0098" x="6" y="894.142">Utilisateur</text></g><!--link User to UC_CRUD--><g class="link" data-entity-1="ent0002" data-entity-2="ent0004" data-link-type="dependency" data-source-line="44" id="lnk18"><path d="M42.9,897.7269 C42.9,980.3769 42.9,1167.6169 42.9,1167.6169 C42.9,1167.6169 126.28,1167.6169 199.25,1167.6169" fill="none" id="User-to-UC_CRUD" style="stroke:#181818;stroke-width:1;"/><polygon fill="#181818" points="205.25,1167.6169,196.25,1163.6169,200.25,1167.6169,196.25,1171.6169,205.25,1167.6169" style="stroke:#181818;stroke-width:1;"/></g><!--link User to UC_RunOne--><g class="link" data-entity-1="ent0002" data-entity-2="ent0007" data-link-type="dependency" data-source-line="45" id="lnk19"><path d="M54.9,820.6569 C54.9,757.8069 54.9,640.3669 54.9,640.3669 C54.9,640.3669 147.19,640.3669 218.8,640.3669" fill="none" id="User-to-UC_RunOne" style="stroke:#181818;stroke-width:1;"/><polygon fill="#181818" points="224.8,640.3669,215.8,636.3669,219.8,640.3669,215.8,644.3669,224.8,640.3669" style="stroke:#181818;stroke-width:1;"/></g><!--link User to UC_RunAll--><g class="link" data-entity-1="ent0002" data-entity-2="ent0008" data-link-type="dependency" data-source-line="46" id="lnk20"><path d="M78.42,892.6569 C113.98,892.6569 163.34,892.6569 209.58,892.6569" fill="none" id="User-to-UC_RunAll" style="stroke:#181818;stroke-width:1;"/><polygon fill="#181818" points="215.58,892.6569,206.58,888.6569,210.58,892.6569,206.58,896.6569,215.58,892.6569" style="stroke:#181818;stroke-width:1;"/></g><!--link User to UC_RunArgs--><g class="link" data-entity-1="ent0002" data-entity-2="ent0009" data-link-type="dependency" data-source-line="47" id="lnk21"><path d="M78.42,834.4269 C102.87,834.4269 130.66,834.4269 164.42,834.4269" fill="none" id="User-to-UC_RunArgs" style="stroke:#181818;stroke-width:1;"/><polygon fill="#181818" points="170.42,834.4269,161.42,830.4269,165.42,834.4269,161.42,838.4269,170.42,834.4269" style="stroke:#181818;stroke-width:1;"/></g><!--link User to UC_Config--><g class="link" data-entity-1="ent0002" data-entity-2="ent0014" data-link-type="dependency" data-source-line="48" id="lnk22"><path d="M30.9,820.6569 C30.9,707.8669 30.9,387.0669 30.9,387.0669 C30.9,387.0669 116.94,387.0669 192.98,387.0669" fill="none" id="User-to-UC_Config" style="stroke:#181818;stroke-width:1;"/><polygon fill="#181818" points="198.98,387.0669,189.98,383.0669,193.98,387.0669,189.98,391.0669,198.98,387.0669" style="stroke:#181818;stroke-width:1;"/></g><!--link User to UC_Result--><g class="link" data-entity-1="ent0002" data-entity-2="ent0013" data-link-type="dependency" data-source-line="49" id="lnk23"><path d="M78.2,865.3969 C199.03,865.3969 580.9,865.3969 580.9,865.3969 C580.9,865.3969 580.9,868.5269 580.9,877.9369" fill="none" id="User-to-UC_Result" style="stroke:#181818;stroke-width:1;"/><polygon fill="#181818" points="580.9,883.9369,584.9,874.9369,580.9,878.9369,576.9,874.9369,580.9,883.9369" style="stroke:#181818;stroke-width:1;"/></g><!--link UC_CRUD to UC_ValidateJob--><g class="link" data-entity-1="ent0004" data-entity-2="ent0005" data-link-type="dependency" data-source-line="52" id="lnk24"><path d="M205.24,1152.9769 C178.26,1152.9769 155.9,1152.9769 155.9,1152.9769 C155.9,1152.9769 155.9,988.2969 155.9,988.2969 C155.9,988.2969 160.69,988.2969 176.32,988.2969" fill="none" id="UC_CRUD-to-UC_ValidateJob" style="stroke:#181818;stroke-width:1;stroke-dasharray:7,7;"/><polygon fill="#181818" points="182.32,988.2969,173.32,984.2969,177.32,988.2969,173.32,992.2969,182.32,988.2969" style="stroke:#181818;stroke-width:1;"/><text fill="#000000" font-family="sans-serif" font-size="13" lengthAdjust="spacing" textLength="63.0068" x="91.9" y="1095.1638">&#171;include&#187;</text></g><!--link UC_CRUD to UC_SaveJobs--><g class="link" data-entity-1="ent0004" data-entity-2="ent0006" data-link-type="dependency" data-source-line="53" id="lnk25"><path d="M298.9,1138.2269 C298.9,1127.7269 298.9,1121.0669 298.9,1109.9369" fill="none" id="UC_CRUD-to-UC_SaveJobs" style="stroke:#181818;stroke-width:1;stroke-dasharray:7,7;"/><polygon fill="#181818" points="298.9,1103.9369,294.9,1112.9369,298.9,1108.9369,302.9,1112.9369,298.9,1103.9369" style="stroke:#181818;stroke-width:1;"/><text fill="#000000" font-family="sans-serif" font-size="13" lengthAdjust="spacing" textLength="63.0068" x="234.9" y="1134.1438">&#171;include&#187;</text></g><!--link UC_RunAll to UC_RunOne--><g class="link" data-entity-1="ent0008" data-entity-2="ent0007" data-link-type="dependency" data-source-line="56" id="lnk26"><path d="M234.31,887.8669 C179.38,887.8669 108.9,887.8669 108.9,887.8669 C108.9,887.8669 108.9,652.2269 108.9,652.2269 C108.9,652.2269 165.71,652.2269 218.95,652.2269" fill="none" id="UC_RunAll-to-UC_RunOne" style="stroke:#181818;stroke-width:1;stroke-dasharray:7,7;"/><polygon fill="#181818" points="224.95,652.2269,215.95,648.2269,219.95,652.2269,215.95,656.2269,224.95,652.2269" style="stroke:#181818;stroke-width:1;"/><text fill="#000000" font-family="sans-serif" font-size="13" lengthAdjust="spacing" textLength="63.0068" x="44.9" y="787.7938">&#171;include&#187;</text></g><!--link UC_RunArgs to UC_RunOne--><g class="link" data-entity-1="ent0009" data-entity-2="ent0007" data-link-type="dependency" data-source-line="57" id="lnk27"><path d="M426.9,792.6269 C426.9,749.7769 426.9,655.1969 426.9,655.1969 C426.9,655.1969 402.68,655.1969 371.52,655.1969" fill="none" id="UC_RunArgs-to-UC_RunOne" style="stroke:#181818;stroke-width:1;stroke-dasharray:7,7;"/><polygon fill="#181818" points="365.52,655.1969,374.52,659.1969,370.52,655.1969,374.52,651.1969,365.52,655.1969" style="stroke:#181818;stroke-width:1;"/><text fill="#000000" font-family="sans-serif" font-size="13" lengthAdjust="spacing" textLength="63.0068" x="427.9" y="706.2838">&#171;include&#187;</text></g><!--link UC_RunArgs to UC_ValidateArgs--><g class="link" data-entity-1="ent0009" data-entity-2="ent0010" data-link-type="dependency" data-source-line="58" id="lnk28"><path d="M298.9,778.5169 C298.9,766.9169 298.9,760.2969 298.9,749.8769" fill="none" id="UC_RunArgs-to-UC_ValidateArgs" style="stroke:#181818;stroke-width:1;stroke-dasharray:7,7;"/><polygon fill="#181818" points="298.9,743.8769,294.9,752.8769,298.9,748.8769,302.9,752.8769,298.9,743.8769" style="stroke:#181818;stroke-width:1;"/><text fill="#000000" font-family="sans-serif" font-size="13" lengthAdjust="spacing" textLength="63.0068" x="234.9" y="774.2638">&#171;include&#187;</text></g><!--link UC_RunOne to UC_Log--><g class="link" data-entity-1="ent0007" data-entity-2="ent0011" data-link-type="dependency" data-source-line="60" id="lnk29"><path d="M365.64,637.3969 C420.53,637.3969 488.9,637.3969 488.9,637.3969 C488.9,637.3969 488.9,464.2969 488.9,464.2969 C488.9,464.2969 462.34,464.2969 424.13,464.2969" fill="none" id="UC_RunOne-to-UC_Log" style="stroke:#181818;stroke-width:1;stroke-dasharray:7,7;"/><polygon fill="#181818" points="418.13,464.2969,427.13,468.2969,423.13,464.2969,427.13,460.2969,418.13,464.2969" style="stroke:#181818;stroke-width:1;"/><text fill="#000000" font-family="sans-serif" font-size="13" lengthAdjust="spacing" textLength="63.0068" x="489.9" y="590.1538">&#171;include&#187;</text></g><!--link UC_RunOne to UC_State--><g class="link" data-entity-1="ent0007" data-entity-2="ent0012" data-link-type="dependency" data-source-line="61" id="lnk30"><path d="M298.9,628.2669 C298.9,618.3169 298.9,611.6169 298.9,599.8269" fill="none" id="UC_RunOne-to-UC_State" style="stroke:#181818;stroke-width:1;stroke-dasharray:7,7;"/><polygon fill="#181818" points="298.9,593.8269,294.9,602.8269,298.9,598.8269,302.9,602.8269,298.9,593.8269" style="stroke:#181818;stroke-width:1;"/><text fill="#000000" font-family="sans-serif" font-size="13" lengthAdjust="spacing" textLength="63.0068" x="234.9" y="624.1138">&#171;include&#187;</text></g><!--reverse link UC_RunOne to UC_Result--><g class="link" data-entity-1="ent0007" data-entity-2="ent0013" data-link-type="dependency" data-source-line="64" id="lnk32"><path d="M381.27,646.2969 C483.19,646.2969 643.9,646.2969 643.9,646.2969 C643.9,646.2969 643.9,823.2269 643.9,884.0569" fill="none" id="UC_RunOne-backto-UC_Result" style="stroke:#181818;stroke-width:1;"/><polygon fill="#181818" points="375.27,646.2969,384.27,650.2969,380.27,646.2969,384.27,642.2969,375.27,646.2969" style="stroke:#181818;stroke-width:1;"/><text fill="#000000" font-family="sans-serif" font-size="13" lengthAdjust="spacing" textLength="61.1851" x="566.47" y="659.3638">&#171;extend&#187;</text></g><!--link UC_Config to UC_Lang--><g class="link" data-entity-1="ent0014" data-entity-2="ent0015" data-link-type="dependency" data-source-line="67" id="lnk33"><path d="M198.91,371.5269 C169.46,371.5269 144.9,371.5269 144.9,371.5269 C144.9,371.5269 144.9,195.2969 144.9,195.2969 C144.9,195.2969 155.2,195.2969 177.17,195.2969" fill="none" id="UC_Config-to-UC_Lang" style="stroke:#181818;stroke-width:1;stroke-dasharray:7,7;"/><polygon fill="#181818" points="183.17,195.2969,174.17,191.2969,178.17,195.2969,174.17,199.2969,183.17,195.2969" style="stroke:#181818;stroke-width:1;"/><text fill="#000000" font-family="sans-serif" font-size="13" lengthAdjust="spacing" textLength="63.0068" x="80.9" y="304.3538">&#171;include&#187;</text></g><!--link UC_Config to UC_LogFormat--><g class="link" data-entity-1="ent0014" data-entity-2="ent0016" data-link-type="dependency" data-source-line="68" id="lnk34"><path d="M298.9,355.8669 C298.9,345.2269 298.9,338.4669 298.9,326.9069" fill="none" id="UC_Config-to-UC_LogFormat" style="stroke:#181818;stroke-width:1;stroke-dasharray:7,7;"/><polygon fill="#181818" points="298.9,320.9069,294.9,329.9069,298.9,325.9069,302.9,329.9069,298.9,320.9069" style="stroke:#181818;stroke-width:1;"/><text fill="#000000" font-family="sans-serif" font-size="13" lengthAdjust="spacing" textLength="63.0068" x="234.9" y="351.4538">&#171;include&#187;</text></g><!--link UC_Lang to UC_SaveConfig--><g class="link" data-entity-1="ent0015" data-entity-2="ent0017" data-link-type="dependency" data-source-line="69" id="lnk35"><path d="M298.9,169.8469 C298.9,158.9769 298.9,152.2669 298.9,141.1569" fill="none" id="UC_Lang-to-UC_SaveConfig" style="stroke:#181818;stroke-width:1;stroke-dasharray:7,7;"/><polygon fill="#181818" points="298.9,135.1569,294.9,144.1569,298.9,140.1569,302.9,144.1569,298.9,135.1569" style="stroke:#181818;stroke-width:1;"/><text fill="#000000" font-family="sans-serif" font-size="13" lengthAdjust="spacing" textLength="63.0068" x="234.9" y="165.5638">&#171;include&#187;</text></g><!--link UC_LogFormat to UC_SaveConfig--><g class="link" data-entity-1="ent0016" data-entity-2="ent0017" data-link-type="dependency" data-source-line="70" id="lnk36"><path d="M418.9,268.9269 C418.9,229.5269 418.9,147.5469 418.9,121.0169" fill="none" id="UC_LogFormat-to-UC_SaveConfig" style="stroke:#181818;stroke-width:1;stroke-dasharray:7,7;"/><polygon fill="#181818" points="418.9,115.0169,414.9,124.0169,418.9,120.0169,422.9,124.0169,418.9,115.0169" style="stroke:#181818;stroke-width:1;"/><text fill="#000000" font-family="sans-serif" font-size="13" lengthAdjust="spacing" textLength="63.0068" x="419.9" y="205.0338">&#171;include&#187;</text></g><?plantuml-src bLJRJXin47ttLupI1nAXG2cjr5OeKffcgo8kKY9GtofdrzaOZBto1Ogg_aiVoNViZtMy5yTP0bBpj9uvSsREN69kkIoefdUmeEbjhfMJsKG9fU5XnIqZ9lZDYcRgWSiSbbIOs2EuPFQnOA2qNIaYsDA2LQ1vlhAGSSrIovKaKGHDBMRuJG2-TBA-cNvCFam_UO_I6TEDzLroF7u_9dyY3cTOIWtRpP8aoV7qxGii08cITcuV1OE54XdI4iijlgRKFCxfFOCXN25rnT-_FZeu6X1IrzoxibnmGorpkWVKU9mcn6kaCaUANilHmyemrHuCXqCuLGi3_SdiwYjevYijolK0lQs8thTohPa6mGpS1EoWpZ3vwHyn-feAdZNmJ4bPhls7yw5jI0N1CZ5p73cdxfxbL5VH54TdB8EioTh6-l9znPlwfx_ATUggCKPaZHMfd8nppvoyb6mtqYfdWimeO2p4xe2sEC2n0zMvksFI-WQTVH_4yJetBxKeH7MRqmqwLKvBz1aVkCU2QEWBbOTiPogFWywPjPf1-HVBT3wkN5jg8HTgGGNq3JxOmOrHCX3ClIccc2XfdB1LkQ3BjNzG6zGn_zuC0z5BdZjDwzBg_Tncg_oL25eKWgSLD6nJvT-AME7oDXk1NmwtFfaTJYysaj6w7Q2uuLMvIwNlK2vk7_O8-gVpoul37-TdSRUI2lBA6gQnedWBcrBnG6lfuzGV7l57X-zHk8tOq6nVn-Jtgsloqz-YghDjmPhUDvtt1_mPxklryTtVXu9fWrT4POevwtBWODGvGGmwEU4o5IvZer47rvuRu6yRHxhNXtxVvNsejee4QT1GrTgVPslK_XSgFf9kNHkI6ej3VbPy5rDj_Mw1itRbqQqABrGo0RJGvPE1-0oNednALmnjbiaCClHGWVz-0n9c1KDN3BioQ_mcOJrfT3NRMpUrtdqIDg4LXsO0s2Lm6zTk-dFSXc8pyb135njeNiV-0m00?></g></svg>