<?plantuml 1.2026.2beta3?><svg xmlns="http://www.w3.org/2000/svg" xmlns:xlink="http://www.w3.org/1999/xlink" contentStyleType="text/css" data-diagram-type="DESCRIPTION" height="940px" preserveAspectRatio="none" style="width:1126px;height:940px;background:#FFFFFF;" version="1.1" viewBox="0 0 1126 940" width="1126px" zoomAndPan="magnify"><title>EasySave - Use Case Diagram V2</title><defs/><g><g class="title" data-source-line="17"><text fill="#000000" font-family="sans-serif" font-size="14" font-weight="bold" lengthAdjust="spacing" textLength="258.9521" x="426.795" y="22.9951">EasySave - Use Case Diagram V2</text></g><!--cluster EasySave v2.0--><g class="cluster" data-qualified-name="EasySave v2.0" data-source-line="29" id="ent0005"><rect fill="none" height="890" rx="2.5" ry="2.5" style="stroke:#181818;stroke-width:1;" width="899.41" x="98.01" y="44.2969"/><text fill="#000000" font-family="sans-serif" font-size="14" font-weight="bold" lengthAdjust="spacing" textLength="113.4219" x="491.0041" y="59.292">EasySave v2.0</text></g><!--cluster Gestion des travaux--><g class="cluster" data-qualified-name="EasySave v2.0.Gestion des travaux" data-source-line="31" id="ent0006"><path d="M170.8,381.2969 L330.4074,381.2969 A3.75,3.75 0 0 1 332.9074,383.7969 L339.9074,403.5938 L679.64,403.5938 A2.5,2.5 0 0 1 682.14,406.0938 L682.14,548.7969 A2.5,2.5 0 0 1 679.64,551.2969 L170.8,551.2969 A2.5,2.5 0 0 1 168.3,548.7969 L168.3,383.7969 A2.5,2.5 0 0 1 170.8,381.2969" fill="none" style="stroke:#000000;stroke-width:1.5;"/><line style="stroke:#000000;stroke-width:1.5;" x1="168.3" x2="339.9074" y1="403.5938" y2="403.5938"/><text fill="#000000" font-family="sans-serif" font-size="14" font-weight="bold" lengthAdjust="spacing" textLength="158.6074" x="172.3" y="396.292">Gestion des travaux</text></g><!--cluster Ex?cution des sauvegardes--><g class="cluster" data-qualified-name="EasySave v2.0.Ex.cution des sauvegardes" data-source-line="37" id="ent0010"><path d="M153.45,575.2969 L370.0691,575.2969 A3.75,3.75 0 0 1 372.5691,577.7969 L379.5691,597.5938 L970.92,597.5938 A2.5,2.5 0 0 1 973.42,600.0938 L973.42,907.7969 A2.5,2.5 0 0 1 970.92,910.2969 L153.45,910.2969 A2.5,2.5 0 0 1 150.95,907.7969 L150.95,577.7969 A2.5,2.5 0 0 1 153.45,575.2969" fill="none" style="stroke:#000000;stroke-width:1.5;"/><line style="stroke:#000000;stroke-width:1.5;" x1="150.95" x2="379.5691" y1="597.5938" y2="597.5938"/><text fill="#000000" font-family="sans-serif" font-size="14" font-weight="bold" lengthAdjust="spacing" textLength="215.6191" x="154.95" y="590.292">Ex&#233;cution des sauvegardes</text></g><!--cluster Configuration--><g class="cluster" data-qualified-name="EasySave v2.0.Configuration" data-source-line="47" id="ent0018"><path d="M124.51,87.2969 L233.675,87.2969 A3.75,3.75 0 0 1 236.175,89.7969 L243.175,109.5938 L700.7,109.5938 A2.5,2.5 0 0 1 703.2,112.0938 L703.2,354.7969 A2.5,2.5 0 0 1 700.7,357.2969 L124.51,357.2969 A2.5,2.5 0 0 1 122.01,354.7969 L122.01,89.7969 A2.5,2.5 0 0 1 124.51,87.2969" fill="none" style="stroke:#000000;stroke-width:1.5;"/><line style="stroke:#000000;stroke-width:1.5;" x1="122.01" x2="243.175" y1="109.5938" y2="109.5938"/><text fill="#000000" font-family="sans-serif" font-size="14" font-weight="bold" lengthAdjust="spacing" textLength="108.165" x="126.01" y="102.292">Configuration</text></g><!--entity UC_CRUD--><g class="entity" data-qualified-name="EasySave v2.0.Gestion des travaux.UC_CRUD" data-source-line="32" id="ent0007"><ellipse cx="266.0602" cy="476.2931" fill="#FFF3E0" rx="81.7602" ry="25.9163" style="stroke:#2F3A4A;stroke-width:0.5;"/><text fill="#000000" font-family="sans-serif" font-size="14" font-weight="bold" lengthAdjust="spacing" textLength="109.4365" x="211.342" y="472.6073">G&#233;rer les jobs</text><text fill="#000000" font-family="sans-serif" font-size="14" font-weight="bold" lengthAdjust="spacing" textLength="112.0205" x="210.05" y="488.9042">CRUD illimit&#233;s</text></g><!--entity UC_ValidateJob--><g class="entity" data-qualified-name="EasySave v2.0.Gestion des travaux.UC_ValidateJob" data-source-line="33" id="ent0008"><ellipse cx="570.6501" cy="514.2989" fill="#FFF3E0" rx="90.8101" ry="20.562" style="stroke:#2F3A4A;stroke-width:0.5;"/><text fill="#000000" font-family="sans-serif" font-size="14" font-weight="bold" lengthAdjust="spacing" textLength="155.5723" x="492.8639" y="518.9473">Valider les donn&#233;es</text></g><!--entity UC_SaveJobs--><g class="entity" data-qualified-name="EasySave v2.0.Gestion des travaux.UC_SaveJobs" data-source-line="34" id="ent0009"><ellipse cx="570.6467" cy="437.2942" fill="#FFF3E0" rx="95.4867" ry="21.4973" style="stroke:#2F3A4A;stroke-width:0.5;"/><text fill="#000000" font-family="sans-serif" font-size="14" font-weight="bold" lengthAdjust="spacing" textLength="166.0586" x="487.6174" y="441.9427">Sauvegarder les jobs</text></g><!--entity UC_RunOne--><g class="entity" data-qualified-name="EasySave v2.0.Ex.cution des sauvegardes.UC_RunOne" data-source-line="38" id="ent0011"><ellipse cx="570.6474" cy="714.2983" fill="#FFF3E0" rx="77.0074" ry="17.8015" style="stroke:#2F3A4A;stroke-width:0.5;"/><text fill="#000000" font-family="sans-serif" font-size="14" font-weight="bold" lengthAdjust="spacing" textLength="123.5664" x="508.8642" y="718.9468">Ex&#233;cuter un job</text></g><!--entity UC_RunAll--><g class="entity" data-qualified-name="EasySave v2.0.Ex.cution des sauvegardes.UC_RunAll" data-source-line="39" id="ent0012"><ellipse cx="266.0622" cy="706.2973" fill="#FFF3E0" rx="99.1022" ry="22.2204" style="stroke:#2F3A4A;stroke-width:0.5;"/><text fill="#000000" font-family="sans-serif" font-size="14" font-weight="bold" lengthAdjust="spacing" textLength="174.0771" x="179.0237" y="710.9458">Ex&#233;cuter tous les jobs</text></g><!--entity UC_State--><g class="entity" data-qualified-name="EasySave v2.0.Ex.cution des sauvegardes.UC_State" data-source-line="40" id="ent0013"><ellipse cx="852.3119" cy="871.2993" fill="#FFF3E0" rx="105.1119" ry="23.4224" style="stroke:#2F3A4A;stroke-width:0.5;"/><text fill="#000000" font-family="sans-serif" font-size="14" font-weight="bold" lengthAdjust="spacing" textLength="187.2637" x="758.6801" y="875.9477">Mettre &#224; jour state.json</text></g><!--entity UC_Log--><g class="entity" data-qualified-name="EasySave v2.0.Ex.cution des sauvegardes.UC_Log" data-source-line="41" id="ent0014"><ellipse cx="852.3095" cy="792.3008" fill="#FFF3E0" rx="91.6195" ry="20.7239" style="stroke:#2F3A4A;stroke-width:0.5;"/><text fill="#000000" font-family="sans-serif" font-size="14" font-weight="bold" lengthAdjust="spacing" textLength="157.3975" x="773.6108" y="796.9492">Journaliser dans log</text></g><!--entity UC_BusinessCheck--><g class="entity" data-qualified-name="EasySave v2.0.Ex.cution des sauvegardes.UC_BusinessCheck" data-source-line="42" id="ent0015"><ellipse cx="852.3116" cy="633.2992" fill="#FFF3E0" rx="105.0116" ry="23.4023" style="stroke:#2F3A4A;stroke-width:0.5;"/><text fill="#000000" font-family="sans-serif" font-size="14" font-weight="bold" lengthAdjust="spacing" textLength="187.0449" x="758.7892" y="637.9476">D&#233;tecter logiciel m&#233;tier</text></g><!--entity UC_Crypto--><g class="entity" data-qualified-name="EasySave v2.0.Ex.cution des sauvegardes.UC_Crypto" data-source-line="43" id="ent0016"><ellipse cx="852.3109" cy="714.293" fill="#FFF3E0" rx="101.2309" ry="22.6462" style="stroke:#2F3A4A;stroke-width:0.5;"/><text fill="#000000" font-family="sans-serif" font-size="14" font-weight="bold" lengthAdjust="spacing" textLength="178.7666" x="762.9276" y="718.9415">Chiffrer via CryptoSoft</text></g><!--entity UC_Result--><g class="entity" data-qualified-name="EasySave v2.0.Ex.cution des sauvegardes.UC_Result" data-source-line="44" id="ent0017"><ellipse cx="266.0636" cy="629.2976" fill="#FFF3E0" rx="85.4036" ry="19.4807" style="stroke:#2F3A4A;stroke-width:0.5;"/><text fill="#000000" font-family="sans-serif" font-size="14" font-weight="bold" lengthAdjust="spacing" textLength="143.2539" x="194.4366" y="633.946">Consulter r&#233;sultat</text></g><!--entity UC_Lang--><g class="entity" data-qualified-name="EasySave v2.0.Configuration.UC_Lang" data-source-line="48" id="ent0019"><ellipse cx="266.0608" cy="319.295" fill="#FFF3E0" rx="100.0908" ry="22.4182" style="stroke:#2F3A4A;stroke-width:0.5;"/><text fill="#000000" font-family="sans-serif" font-size="14" font-weight="bold" lengthAdjust="spacing" textLength="176.2578" x="177.9319" y="323.9435">Changer langue FR/EN</text></g><!--entity UC_LogFormat--><g class="entity" data-qualified-name="EasySave v2.0.Configuration.UC_LogFormat" data-source-line="49" id="ent0020"><ellipse cx="266.0575" cy="237.2994" fill="#FFF3E0" rx="95.1675" ry="24.1225" style="stroke:#2F3A4A;stroke-width:0.5;"/><text fill="#000000" font-family="sans-serif" font-size="14" font-weight="bold" lengthAdjust="spacing" textLength="142.2217" x="194.9466" y="236.6585">Choisir format log</text><text fill="#000000" font-family="sans-serif" font-size="14" font-weight="bold" lengthAdjust="spacing" textLength="77.6699" x="227.2225" y="252.9554">JSON/XML</text></g><!--entity UC_DefineCrypto--><g class="entity" data-qualified-name="EasySave v2.0.Configuration.UC_DefineCrypto" data-source-line="50" id="ent0021"><ellipse cx="266.0564" cy="150.2962" fill="#FFF3E0" rx="128.0464" ry="28.0093" style="stroke:#2F3A4A;stroke-width:0.5;"/><text fill="#000000" font-family="sans-serif" font-size="14" font-weight="bold" lengthAdjust="spacing" textLength="222.0244" x="155.0442" y="151.5815">D&#233;finir extensions &#224; chiffrer</text><text fill="#000000" font-family="sans-serif" font-size="14" font-weight="bold" lengthAdjust="spacing" textLength="134.5381" x="198.7874" y="167.8784">et logiciel m&#233;tier</text></g><!--entity UC_SaveConfig--><g class="entity" data-qualified-name="EasySave v2.0.Configuration.UC_SaveConfig" data-source-line="51" id="ent0022"><ellipse cx="570.6488" cy="237.2966" fill="#FFF3E0" rx="116.5488" ry="25.7098" style="stroke:#2F3A4A;stroke-width:0.5;"/><text fill="#000000" font-family="sans-serif" font-size="14" font-weight="bold" lengthAdjust="spacing" textLength="211.9756" x="464.661" y="241.9451">Sauvegarder configuration</text></g><!--entity User--><g class="entity" data-qualified-name="User" data-source-line="22" id="ent0002"><ellipse cx="42.0049" cy="446.6469" fill="#E8F5E9" rx="8" ry="8" style="stroke:#2F3A4A;stroke-width:0.5;"/><path d="M42.0049,454.6469 L42.0049,481.6469 M29.0049,462.6469 L55.0049,462.6469 M42.0049,481.6469 L29.0049,496.6469 M42.0049,481.6469 L55.0049,496.6469" fill="none" style="stroke:#2F3A4A;stroke-width:0.5;"/><text fill="#000000" font-family="sans-serif" font-size="14" lengthAdjust="spacing" textLength="72.0098" x="6" y="511.142">Utilisateur</text></g><!--entity BusinessApp--><g class="entity" data-qualified-name="BusinessApp" data-source-line="23" id="ent0003"><ellipse cx="1068.481" cy="572.4969" fill="#E8F5E9" rx="8" ry="8" style="stroke:#2F3A4A;stroke-width:0.5;"/><path d="M1068.481,580.4969 L1068.481,607.4969 M1055.481,588.4969 L1081.481,588.4969 M1068.481,607.4969 L1055.481,622.4969 M1068.481,607.4969 L1081.481,622.4969" fill="none" style="stroke:#2F3A4A;stroke-width:0.5;"/><text fill="#000000" font-family="sans-serif" font-size="14" lengthAdjust="spacing" textLength="102.1221" x="1017.42" y="636.992">Logiciel M&#233;tier</text><text fill="#000000" font-family="sans-serif" font-size="14" lengthAdjust="spacing" textLength="65.3994" x="1017.42" y="653.2889">(Externe)</text></g><!--entity CryptoSoft--><g class="entity" data-qualified-name="CryptoSoft" data-source-line="24" id="ent0004"><ellipse cx="1068.484" cy="700.4969" fill="#E8F5E9" rx="8" ry="8" style="stroke:#2F3A4A;stroke-width:0.5;"/><path d="M1068.484,708.4969 L1068.484,735.4969 M1055.484,716.4969 L1081.484,716.4969 M1068.484,735.4969 L1055.484,750.4969 M1068.484,735.4969 L1081.484,750.4969" fill="none" style="stroke:#2F3A4A;stroke-width:0.5;"/><text fill="#000000" font-family="sans-serif" font-size="14" lengthAdjust="spacing" textLength="74.6279" x="1031.17" y="764.992">CryptoSoft</text><text fill="#000000" font-family="sans-serif" font-size="14" lengthAdjust="spacing" textLength="65.3994" x="1031.17" y="781.2889">(Externe)</text></g><!--link User to UC_CRUD--><g class="link" data-entity-1="ent0002" data-entity-2="ent0007" data-link-type="dependency" data-source-line="58" id="lnk23"><path d="M78.5,476.2969 C107.02,476.2969 141.77,476.2969 178,476.2969" fill="none" id="User-to-UC_CRUD" style="stroke:#181818;stroke-width:1;"/><polygon fill="#181818" points="184,476.2969,175,472.2969,179,476.2969,175,480.2969,184,476.2969" style="stroke:#181818;stroke-width:1;"/></g><!--link User to UC_RunOne--><g class="link" data-entity-1="ent0002" data-entity-2="ent0011" data-link-type="dependency" data-source-line="59" id="lnk24"><path d="M78.5,506.2869 C180.57,506.2869 461.55,506.2869 461.55,506.2869 C461.55,506.2869 461.55,707.1669 461.55,707.1669 C461.55,707.1669 472.7,707.1669 493.4,707.1669" fill="none" id="User-to-UC_RunOne" style="stroke:#181818;stroke-width:1;"/><polygon fill="#181818" points="499.4,707.1669,490.4,703.1669,494.4,707.1669,490.4,711.1669,499.4,707.1669" style="stroke:#181818;stroke-width:1;"/></g><!--link User to UC_RunAll--><g class="link" data-entity-1="ent0002" data-entity-2="ent0012" data-link-type="dependency" data-source-line="60" id="lnk25"><path d="M78.43,510.3669 C116.75,510.3669 171.55,510.3669 171.55,510.3669 C171.55,510.3669 171.55,658.4169 171.55,693.3269" fill="none" id="User-to-UC_RunAll" style="stroke:#181818;stroke-width:1;"/><polygon fill="#181818" points="171.55,699.3269,175.55,690.3269,171.55,694.3269,167.55,690.3269,171.55,699.3269" style="stroke:#181818;stroke-width:1;"/></g><!--link User to UC_Result--><g class="link" data-entity-1="ent0002" data-entity-2="ent0017" data-link-type="dependency" data-source-line="61" id="lnk26"><path d="M42.55,514.9069 C42.55,560.2269 42.55,629.2969 42.55,629.2969 C42.55,629.2969 111.25,629.2969 174.28,629.2969" fill="none" id="User-to-UC_Result" style="stroke:#181818;stroke-width:1;"/><polygon fill="#181818" points="180.28,629.2969,171.28,625.2969,175.28,629.2969,171.28,633.2969,180.28,629.2969" style="stroke:#181818;stroke-width:1;"/></g><!--link User to UC_Lang--><g class="link" data-entity-1="ent0002" data-entity-2="ent0019" data-link-type="dependency" data-source-line="63" id="lnk27"><path d="M78.41,446.3069 C118.26,446.3069 176.55,446.3069 176.55,446.3069 C176.55,446.3069 176.55,366.0269 176.55,335.6869" fill="none" id="User-to-UC_Lang" style="stroke:#181818;stroke-width:1;"/><polygon fill="#181818" points="176.55,329.6869,172.55,338.6869,176.55,334.6869,180.55,338.6869,176.55,329.6869" style="stroke:#181818;stroke-width:1;"/></g><!--link User to UC_LogFormat--><g class="link" data-entity-1="ent0002" data-entity-2="ent0020" data-link-type="dependency" data-source-line="64" id="lnk28"><path d="M42.55,437.8969 C42.55,370.3369 42.55,237.2969 42.55,237.2969 C42.55,237.2969 103.87,237.2969 164.62,237.2969" fill="none" id="User-to-UC_LogFormat" style="stroke:#181818;stroke-width:1;"/><polygon fill="#181818" points="170.62,237.2969,161.62,233.2969,165.62,237.2969,161.62,241.2969,170.62,237.2969" style="stroke:#181818;stroke-width:1;"/></g><!--link User to UC_DefineCrypto--><g class="link" data-entity-1="ent0002" data-entity-2="ent0021" data-link-type="dependency" data-source-line="65" id="lnk29"><path d="M78.51,442.2269 C110.7,442.2269 152.55,442.2269 152.55,442.2269 C152.55,442.2269 152.55,226.7069 152.55,169.5969" fill="none" id="User-to-UC_DefineCrypto" style="stroke:#181818;stroke-width:1;"/><polygon fill="#181818" points="152.55,163.5969,148.55,172.5969,152.55,168.5969,156.55,172.5969,152.55,163.5969" style="stroke:#181818;stroke-width:1;"/></g><!--link UC_BusinessCheck to BusinessApp--><g class="link" data-entity-1="ent0015" data-entity-2="ent0003" data-link-type="dependency" data-source-line="70" id="lnk30"><path d="M957.55,633.2469 C978.27,633.2469 993.14,633.2469 1011.09,633.2469" fill="none" id="UC_BusinessCheck-to-BusinessApp" style="stroke:#181818;stroke-width:1;"/><polygon fill="#181818" points="1017.09,633.2469,1008.09,629.2469,1012.09,633.2469,1008.09,637.2469,1017.09,633.2469" style="stroke:#181818;stroke-width:1;"/></g><!--link UC_Crypto to CryptoSoft--><g class="link" data-entity-1="ent0016" data-entity-2="ent0004" data-link-type="dependency" data-source-line="71" id="lnk31"><path d="M953.75,714.4669 C981.29,714.4669 1003.4,714.4669 1024.9,714.4669" fill="none" id="UC_Crypto-to-CryptoSoft" style="stroke:#181818;stroke-width:1;"/><polygon fill="#181818" points="1030.9,714.4669,1021.9,710.4669,1025.9,714.4669,1021.9,718.4669,1030.9,714.4669" style="stroke:#181818;stroke-width:1;"/></g><!--link UC_CRUD to UC_ValidateJob--><g class="link" data-entity-1="ent0007" data-entity-2="ent0008" data-link-type="dependency" data-source-line="78" id="lnk32"><path d="M312.98,497.9769 C366.8,497.9769 449.05,497.9769 507,497.9769" fill="none" id="UC_CRUD-to-UC_ValidateJob" style="stroke:#181818;stroke-width:1;stroke-dasharray:7,7;"/><polygon fill="#181818" points="513,497.9769,504,493.9769,508,497.9769,504,501.9769,513,497.9769" style="stroke:#181818;stroke-width:1;"/><text fill="#000000" font-family="sans-serif" font-size="13" lengthAdjust="spacing" textLength="63.0068" x="348.99" y="511.0438">&#171;include&#187;</text></g><!--link UC_CRUD to UC_SaveJobs--><g class="link" data-entity-1="ent0007" data-entity-2="ent0009" data-link-type="dependency" data-source-line="79" id="lnk33"><path d="M312.65,454.5869 C365.98,454.5869 447.43,454.5869 505.52,454.5869" fill="none" id="UC_CRUD-to-UC_SaveJobs" style="stroke:#181818;stroke-width:1;stroke-dasharray:7,7;"/><polygon fill="#181818" points="511.52,454.5869,502.52,450.5869,506.52,454.5869,502.52,458.5869,511.52,454.5869" style="stroke:#181818;stroke-width:1;"/><text fill="#000000" font-family="sans-serif" font-size="13" lengthAdjust="spacing" textLength="63.0068" x="348.08" y="450.6538">&#171;include&#187;</text></g><!--link UC_RunAll to UC_RunOne--><g class="link" data-entity-1="ent0012" data-entity-2="ent0011" data-link-type="dependency" data-source-line="81" id="lnk34"><path d="M351.71,717.8469 C396.67,717.8469 445.28,717.8469 488.71,717.8469" fill="none" id="UC_RunAll-to-UC_RunOne" style="stroke:#181818;stroke-width:1;stroke-dasharray:7,7;"/><polygon fill="#181818" points="494.71,717.8469,485.71,713.8469,489.71,717.8469,485.71,721.8469,494.71,717.8469" style="stroke:#181818;stroke-width:1;"/><text fill="#000000" font-family="sans-serif" font-size="13" lengthAdjust="spacing" textLength="63.0068" x="424.21" y="730.9138">&#171;include&#187;</text></g><!--link UC_RunOne to UC_State--><g class="link" data-entity-1="ent0011" data-entity-2="ent0013" data-link-type="dependency" data-source-line="83" id="lnk35"><path d="M545.55,731.3969 C545.55,772.0869 545.55,871.2969 545.55,871.2969 C545.55,871.2969 652,871.2969 740.74,871.2969" fill="none" id="UC_RunOne-to-UC_State" style="stroke:#181818;stroke-width:1;stroke-dasharray:7,7;"/><polygon fill="#181818" points="746.74,871.2969,737.74,867.2969,741.74,871.2969,737.74,875.2969,746.74,871.2969" style="stroke:#181818;stroke-width:1;"/><text fill="#000000" font-family="sans-serif" font-size="13" lengthAdjust="spacing" textLength="63.0068" x="512.19" y="884.3638">&#171;include&#187;</text></g><!--link UC_RunOne to UC_Log--><g class="link" data-entity-1="ent0011" data-entity-2="ent0014" data-link-type="dependency" data-source-line="84" id="lnk36"><path d="M596.55,731.2169 C596.55,754.1669 596.55,792.2969 596.55,792.2969 C596.55,792.2969 681.01,792.2969 754.34,792.2969" fill="none" id="UC_RunOne-to-UC_Log" style="stroke:#181818;stroke-width:1;stroke-dasharray:7,7;"/><polygon fill="#181818" points="760.34,792.2969,751.34,788.2969,755.34,792.2969,751.34,796.2969,760.34,792.2969" style="stroke:#181818;stroke-width:1;"/><text fill="#000000" font-family="sans-serif" font-size="13" lengthAdjust="spacing" textLength="63.0068" x="583.9" y="805.3638">&#171;include&#187;</text></g><!--link UC_RunOne to UC_BusinessCheck--><g class="link" data-entity-1="ent0011" data-entity-2="ent0015" data-link-type="dependency" data-source-line="85" id="lnk37"><path d="M596.55,697.1469 C596.55,678.9369 596.55,652.7369 596.55,652.7369 C596.55,652.7369 709.38,652.7369 785.05,652.7369" fill="none" id="UC_RunOne-to-UC_BusinessCheck" style="stroke:#181818;stroke-width:1;stroke-dasharray:7,7;"/><polygon fill="#181818" points="791.05,652.7369,782.05,648.7369,786.05,652.7369,782.05,656.7369,791.05,652.7369" style="stroke:#181818;stroke-width:1;"/><text fill="#000000" font-family="sans-serif" font-size="13" lengthAdjust="spacing" textLength="63.0068" x="607.59" y="665.8038">&#171;include&#187;</text></g><!--link UC_RunOne to UC_Crypto--><g class="link" data-entity-1="ent0011" data-entity-2="ent0016" data-link-type="dependency" data-source-line="86" id="lnk38"><path d="M647.99,714.2969 C679.66,714.2969 710.76,714.2969 744.59,714.2969" fill="none" id="UC_RunOne-to-UC_Crypto" style="stroke:#181818;stroke-width:1;stroke-dasharray:7,7;"/><polygon fill="#181818" points="750.59,714.2969,741.59,710.2969,745.59,714.2969,741.59,718.2969,750.59,714.2969" style="stroke:#181818;stroke-width:1;"/><text fill="#000000" font-family="sans-serif" font-size="13" lengthAdjust="spacing" textLength="61.1851" x="700.29" y="727.3638">&#171;extend&#187;</text></g><!--link UC_Lang to UC_SaveConfig--><g class="link" data-entity-1="ent0019" data-entity-2="ent0022" data-link-type="dependency" data-source-line="88" id="lnk39"><path d="M366.41,319.2969 C417.33,319.2969 468.55,319.2969 468.55,319.2969 C468.55,319.2969 468.55,279.1769 468.55,256.1069" fill="none" id="UC_Lang-to-UC_SaveConfig" style="stroke:#181818;stroke-width:1;stroke-dasharray:7,7;"/><polygon fill="#181818" points="468.55,250.1069,464.55,259.1069,468.55,255.1069,472.55,259.1069,468.55,250.1069" style="stroke:#181818;stroke-width:1;"/><text fill="#000000" font-family="sans-serif" font-size="13" lengthAdjust="spacing" textLength="63.0068" x="388.07" y="332.3638">&#171;include&#187;</text></g><!--link UC_LogFormat to UC_SaveConfig--><g class="link" data-entity-1="ent0020" data-entity-2="ent0022" data-link-type="dependency" data-source-line="89" id="lnk40"><path d="M356.21,245.3369 C388.57,245.3369 419.46,245.3369 453.41,245.3369" fill="none" id="UC_LogFormat-to-UC_SaveConfig" style="stroke:#181818;stroke-width:1;stroke-dasharray:7,7;"/><polygon fill="#181818" points="459.41,245.3369,450.41,241.3369,454.41,245.3369,450.41,249.3369,459.41,245.3369" style="stroke:#181818;stroke-width:1;"/><text fill="#000000" font-family="sans-serif" font-size="13" lengthAdjust="spacing" textLength="63.0068" x="343.81" y="258.4038">&#171;include&#187;</text></g><!--link UC_DefineCrypto to UC_SaveConfig--><g class="link" data-entity-1="ent0021" data-entity-2="ent0022" data-link-type="dependency" data-source-line="90" id="lnk41"><path d="M380.55,162.9869 C380.55,185.3069 380.55,229.2569 380.55,229.2569 C380.55,229.2569 411.91,229.2569 453.52,229.2569" fill="none" id="UC_DefineCrypto-to-UC_SaveConfig" style="stroke:#181818;stroke-width:1;stroke-dasharray:7,7;"/><polygon fill="#181818" points="459.52,229.2569,450.52,225.2569,454.52,229.2569,450.52,233.2569,459.52,229.2569" style="stroke:#181818;stroke-width:1;"/><text fill="#000000" font-family="sans-serif" font-size="13" lengthAdjust="spacing" textLength="63.0068" x="387.89" y="225.3238">&#171;include&#187;</text></g><!--link UC_Result to UC_RunOne--><g class="link" data-entity-1="ent0017" data-entity-2="ent0011" data-link-type="dependency" data-source-line="93" id="lnk42"><path d="M351.81,629.3369 C433.97,629.3369 545.55,629.3369 545.55,629.3369 C545.55,629.3369 545.55,666.2769 545.55,691.1069" fill="none" id="UC_Result-to-UC_RunOne" style="stroke:#181818;stroke-width:1;stroke-dasharray:7,7;"/><polygon fill="#181818" points="545.55,697.1069,549.55,688.1069,545.55,692.1069,541.55,688.1069,545.55,697.1069" style="stroke:#181818;stroke-width:1;"/><text fill="#000000" font-family="sans-serif" font-size="13" lengthAdjust="spacing" textLength="61.1851" x="420.56" y="642.4038">&#171;extend&#187;</text></g><?plantuml-src ZLJRJXin47tVhnYb3uK70e9MQYiQAMmsA2W9KZP1L8fKcLrdOrZioFO6KCM_z3NVaH_hU2-kDu64VO7C71_Fd3cUbCuqQ06I9NCDCPCqqanmJpqmlY2IFC8TYHuIAJ8U-o8L4fxcJ5Cdh-Oa5a-C9p0ZgN8pAUDKlome2AddmdCo9DB8zCS3kDXW_nHywtuDlfkCa36LPVIqUzR-qlPUNP9CqOWe-ZPDjziz2qxUeG7e2gv3_P9Ik1DfR7Wrq_Wh8Eeb94iAHp11Qj_mTnX9p7qtfvxt6Nw-zs6kxO-3oIZSYIfQRqmqIvaYccQo0KIPssILwuk4HOocC5YlDADooW-2PqqbfuSvzY9JgAnIxSMYEkBBbuKMePZfJV3_pBxgmr_XE1W4Er767eGdg5J3IhKyRPuqS0eewmB7G19CNb9bR0GnLQ0bMPBikP4F2k3WShsIL4AAgNjnfwRS7qqwmDAKFJAzNgd3N0__jmaN9sv8okBoI2muNw-eHUKvrF5At1NWa6HBcX0PEtTKO5Cl0XKYNslr1i_hLPJPafNbKBRi4eAi6JUa5USeuzUSRcAqoDJMzGXjfsa17L2j9ONrNqHa4fJ67fhtId1RguaKs2j4SEmJFG8nuKWiaWg6PYb07JGBJiTqNVddiV1F1Qryuyzfz50SykTiDZFJM3BYMCME88-KKC5LbXf-YKF2_uY5ZQZvlIKgdfYn99F4w6frzETe85Cb_iaeT4V7mT0sWx4A9PXY4cP2FX9jMfhog_1wU7mxw3kjT_Eq5M36E9wXw7-ky4vbv8tA5gUuZDwLfaFnA7NRTMqKkOsuNYewp1j_tVUy-hrW6C9atEltmhRP4plnPX_0qL7BFWGtK5fk8sIiLGiLKwd5Se5h0QkX6wt9yR6b1y7jE1WDWztRRzE5-ONkFhEcopCVNrwZeDyUzwwDmeF-JYmcZ_23tj3lJpg1LmeCpMPhOv_03pW_PpnAivYsMfl0QfSOjzI1dfr7XIq6zZRC92fAy-IX-hPkhuDnSW0V1TT5tmCk1-0mvoygBcis7d95A1x1DgcrraV0hkFsugiH6iiDEvxr-XjoLvN_0m00?></g></svg>